<svg width="152" height="68" viewBox="0 0 152 68" fill="none" xmlns="http://www.w3.org/2000/svg">
<path d="M50.4153 53.905C49.769 53.6889 49.3021 53.1488 49.1226 52.1765L49.0867 51.4924C49.0867 50.6282 49.2303 49.4399 49.733 47.9275C48.979 48.8998 45.1727 53.6889 43.3055 53.6889C43.09 53.6889 42.9464 53.6529 42.7668 53.5449C42.5155 53.3288 42.3359 52.8967 42.3359 52.3566C42.3359 51.3483 42.7668 49.872 43.4491 48.4677C44.5263 46.4152 46.0345 44.2546 47.5426 43.6425C47.8658 43.5345 48.189 43.4264 48.4403 43.4264C49.2303 43.4264 49.9844 43.9666 50.523 45.1909C50.7744 44.8668 50.6308 44.9748 50.8821 44.7228C51.0258 44.5067 51.3489 44.2906 51.5644 44.2546H51.9953C52.2107 44.3627 52.3184 44.5067 52.4262 44.7228C52.4262 44.8668 52.4262 45.1549 52.2825 45.4069C51.2771 48.1076 50.7744 50.016 50.7744 51.2763V51.6364C50.7744 52.0685 50.8821 52.3926 51.0257 52.5366C51.1335 52.6447 51.3489 52.6807 51.5644 52.6807C51.7798 52.6447 52.0312 52.5726 52.3544 52.4286C52.6057 52.3206 52.9289 52.1045 53.2521 51.8885L53.683 51.6364C55.5143 50.3401 57.7047 48.2516 59.7874 45.767C59.8951 45.623 60.0387 45.551 60.2183 45.551C60.326 45.551 60.4337 45.587 60.5415 45.659C60.6492 45.767 60.7569 45.911 60.7569 46.0911C60.7569 46.1991 60.721 46.3431 60.6133 46.4512C58.3151 49.2598 55.8016 51.6004 53.7548 52.8967C53.5393 53.0408 52.6416 53.4729 52.6416 53.4729C51.9953 53.7249 51.4207 53.905 50.918 53.905H50.4153ZM49.4458 46.5952V46.5592C49.1226 45.767 48.7635 45.3709 48.3685 45.3709L48.1172 45.4069C47.1117 45.731 45.9268 47.2794 45.1009 48.8998C44.4186 50.1241 43.9877 51.3844 43.9877 51.9245C43.9877 52.0325 43.9877 52.1405 44.0236 52.1765L44.1313 52.2126C44.8854 52.2126 49.1585 46.8473 49.4458 46.5952Z" fill="white"/>
<path d="M58.4588 62.9431C57.992 62.7991 57.8124 62.403 57.8124 61.8269V61.5748C57.8483 61.1067 58.0638 60.4585 58.2792 59.7024C59.0692 57.3258 60.7928 53.941 61.7623 52.1045C62.3369 50.9883 62.6241 50.1601 62.6241 49.5119C62.6241 48.3236 61.7623 47.8555 61.0083 47.4234C60.1465 46.8833 59.3565 46.4512 59.3565 45.551C59.3565 45.0828 59.5719 44.4347 60.1465 43.6065L60.6851 43.0303C60.8287 42.8863 61.0442 42.7783 61.3314 42.7783C61.5469 42.7783 61.6905 42.8143 61.8701 42.9223C61.9778 43.0303 62.0855 43.0664 62.0855 43.2464C62.1214 43.3544 62.1932 43.4625 62.1932 43.5705C62.1932 43.7865 62.0855 44.0026 61.9778 44.2186C61.6187 44.6867 61.511 45.0828 61.511 45.4069C61.511 45.947 61.9419 46.2711 62.4805 46.5952C63.45 47.1713 64.5632 47.9275 64.5632 49.5119C64.5632 50.3761 64.3118 51.4564 63.4859 52.8607C62.696 54.3731 61.4033 56.8577 60.4337 58.8742C59.7874 60.3145 59.3206 61.6108 59.3206 61.7909C60.8287 60.8906 63.7014 57.2898 66.7177 53.4008C68.7645 50.8082 70.8472 48.1796 72.7862 46.1271C72.8939 46.0191 73.0376 45.911 73.2171 45.911C73.3248 45.911 73.4325 45.947 73.5403 46.0551C73.648 46.1631 73.6839 46.3071 73.6839 46.4152C73.6839 46.5592 73.648 46.7392 73.5403 46.8473C71.7089 48.8277 69.6263 51.4564 67.5795 54.049C64.5273 57.9379 61.6187 61.5748 59.7515 62.6911L59.536 62.7991C59.2847 62.9071 59.0692 63.0152 58.8538 63.0152L58.4588 62.9431Z" fill="white"/>
<path d="M72.8221 53.2568C71.9244 54.7692 71.1703 55.9935 70.8471 56.5336C70.5958 56.8937 70.2726 57.2178 69.9494 57.2178C69.8058 57.2178 69.6981 57.2178 69.5904 57.1097C69.4467 57.0017 69.3749 56.8577 69.3749 56.4616C69.3749 56.1015 69.4108 55.5974 69.6263 54.9132L70.0931 53.4008C70.9908 50.1241 72.1758 46.1991 73.0376 43.6065V43.5705C73.1453 42.9223 73.5044 42.3822 73.8275 42.1301C73.9712 42.0221 74.0789 41.9141 74.2943 41.9141H74.4021C74.6175 41.9141 74.7612 42.0221 74.9407 42.2742C74.9766 42.3822 75.0484 42.5262 75.0484 42.8143C75.0484 42.9223 75.0484 43.1384 75.0125 43.2824V43.3184C74.4739 44.7588 73.7916 46.9913 73.0376 49.3319C72.7144 50.3041 72.3912 51.3123 72.1398 52.3566C74.0789 49.0078 76.1616 45.5149 78.5315 42.4542C79.2138 41.554 79.8601 40.7978 80.3988 40.5097C80.6142 40.3657 80.8297 40.2937 81.0451 40.2937C81.1528 40.2937 81.1888 40.2937 81.2965 40.3297C81.6197 40.3657 81.8351 40.6538 81.9787 41.0859C82.0146 41.3019 82.0146 41.554 82.0146 41.8781C82.0146 42.3102 81.9787 42.9583 81.871 43.6425C81.871 43.6785 80.3629 51.3844 80.327 52.5726C80.6501 52.1405 81.081 51.4924 81.6556 50.7362L82.0865 50.1601C82.8764 49.0438 83.8101 47.7475 84.8873 46.3431C84.9232 46.2351 84.995 46.1991 85.0309 46.1271C85.0309 46.0911 85.0309 46.0911 85.0668 46.0911C86.0723 44.7588 86.7186 44.2186 87.1495 44.2186C87.2932 44.2186 87.4009 44.2186 87.5086 44.3267C87.8318 44.5427 87.9395 45.0828 87.9395 45.767C87.9395 46.3071 87.9036 46.9553 87.7959 47.6395C87.6882 48.6117 87.5445 49.6199 87.5445 50.4841C87.5445 51.1683 87.6523 51.7084 87.8677 51.9965C87.9754 52.1045 88.0832 52.1405 88.2268 52.1405C88.6936 52.1405 89.5195 51.7084 90.9199 50.5201C92.6794 49.0078 94.2594 47.3514 95.7316 45.623C95.8394 45.5149 95.983 45.4069 96.1625 45.4069C96.3062 45.4069 96.4139 45.4429 96.4857 45.551C96.6293 45.659 96.7012 45.803 96.7012 45.911C96.7012 46.0551 96.6652 46.1631 96.5575 46.2711C95.1212 47.9275 93.2899 49.872 91.674 51.2763C90.8122 51.9605 90.0581 52.4646 89.4836 52.7887C88.8372 53.1128 88.2986 53.2568 87.8677 53.2568C87.5086 53.2568 87.1854 53.1488 86.97 52.9327C86.5032 52.4646 86.2877 51.6004 86.2877 50.5562C86.2877 49.6559 86.4314 48.5757 86.6109 47.6034C86.7186 46.5232 86.8264 45.5149 86.8264 45.4069C86.6827 45.659 86.3955 46.0551 85.9646 46.6312L85.9286 46.6672L85.785 46.8833C84.7078 48.3236 83.7382 49.6199 83.056 50.6642L82.7328 51.0963L82.6969 51.1323L82.4815 51.4564L82.4455 51.4924C81.2606 53.1128 80.4706 54.121 79.8601 54.121H79.7524C79.3933 54.085 79.1779 53.5809 79.1779 52.6807C79.1779 51.1683 79.7165 48.3236 80.6142 43.7145C80.8297 42.6343 80.9374 41.9861 80.9374 41.662C80.9374 41.554 80.9374 41.446 80.9015 41.446C80.8656 41.446 80.7938 41.482 80.686 41.482C80.3629 41.8061 79.932 42.2742 79.4651 42.9223C76.9157 46.3792 74.9048 49.764 72.8221 53.2568Z" fill="white"/>
<path d="M107.474 56.2095L107.51 55.9935C107.617 55.0212 108.3 52.2846 109.161 49.5479C109.413 48.5757 109.7 47.6034 110.023 46.7032C107.438 50.1961 104.996 52.6087 103.165 53.6889C102.411 54.049 101.728 54.3371 101.118 54.3371L100.795 54.3011C100.041 54.157 99.5738 53.6169 99.3584 52.6807L99.2506 51.7084C99.2506 50.8082 99.4661 49.6199 99.897 48.1436C99.107 49.0438 95.2289 53.905 93.3617 53.905C93.218 53.905 93.0385 53.869 92.8949 53.7609C92.6435 53.5449 92.464 53.1128 92.464 52.5726C92.464 51.5644 92.8949 50.1601 93.6489 48.6837C94.6544 46.5952 96.2343 44.4707 97.6707 43.8586C97.9939 43.7505 98.317 43.6425 98.6402 43.6425C99.4302 43.6425 100.184 44.1826 100.687 45.3709L101.046 44.9388C101.262 44.6867 101.513 44.5067 101.8 44.4707L102.016 44.4347L102.231 44.4707C102.446 44.5067 102.554 44.6867 102.59 44.9388V45.0828L102.482 45.623C101.369 48.4316 100.938 50.4121 100.938 51.6364V51.8525C100.974 52.2846 101.046 52.6087 101.19 52.7167C101.297 52.8247 101.441 52.8607 101.621 52.8607C102.375 52.8607 103.488 52.1045 103.667 51.9965L103.919 51.8525C106.001 50.1241 108.73 46.9553 111.424 42.6703C111.567 42.4182 111.783 42.2382 112.07 42.2382H112.178C112.321 42.2382 112.429 42.2742 112.537 42.3822C112.644 42.4182 112.68 42.5262 112.752 42.7063L112.788 42.9583C112.788 43.1744 112.68 43.4264 112.537 43.7145C112.106 44.3627 111.316 47.1713 111.029 47.9995C110.562 49.5479 110.059 51.2403 109.7 52.6807L109.736 52.5366C111.172 50.1241 112.968 47.0993 114.081 45.803L114.44 45.4429C115.122 44.6867 115.625 44.3627 116.056 44.3627C116.271 44.3627 116.415 44.3987 116.594 44.5787C116.918 44.8308 117.025 45.4429 117.025 46.1991C117.025 46.8833 116.918 47.7475 116.81 48.6837C116.702 49.8 116.558 51.0603 116.558 52.1405C116.558 52.9327 116.594 53.6889 116.989 54.085C117.097 54.193 117.205 54.3011 117.42 54.3011C117.851 54.3011 118.605 53.941 119.79 52.9687C122.052 51.2043 124.71 48.0355 126.541 45.767C126.649 45.659 126.792 45.623 126.972 45.623C127.08 45.623 127.187 45.659 127.295 45.731C127.403 45.839 127.511 46.0551 127.511 46.1991L127.403 46.4512C125.464 48.7557 122.807 51.9965 120.472 53.8329C119.934 54.265 119.395 54.6251 118.964 54.8412C118.103 55.3813 117.42 55.6334 116.882 55.6334C116.523 55.6334 116.199 55.5254 115.984 55.3093C115.338 54.7692 115.122 53.6529 115.122 52.3926C115.122 51.2763 115.266 50.016 115.373 48.8277C115.517 47.8195 115.625 46.8473 115.625 46.2351C115.625 46.0191 115.625 45.875 115.589 45.767L115.158 46.2351L114.943 46.4872C113.829 47.7115 112.106 50.7002 110.705 53.0408C109.485 55.0933 108.551 56.7496 107.976 56.7496C107.689 56.7496 107.474 56.5696 107.474 56.2095ZM95.5521 51.3484C97.0602 50.052 98.3529 48.3236 99.5738 46.7752V46.7392C99.3225 45.839 98.8916 45.5149 98.4966 45.5149L98.2452 45.551C97.2757 45.875 96.0907 47.4954 95.2289 49.0438C94.5826 50.2681 94.1158 51.4564 94.1158 52.0685C94.1158 52.2126 94.1517 52.3206 94.2235 52.3926C94.2953 52.3926 94.6903 52.1045 95.5521 51.3484Z" fill="white"/>
<path d="M131.281 67.4082C131.065 67.3722 130.958 67.1922 130.85 66.9761C130.706 66.652 130.635 66.1839 130.635 65.5358L130.67 64.2034C130.814 62.583 131.137 60.2785 131.64 57.5778C132.43 53.0047 133.579 47.3154 134.8 41.554C132.933 46.1631 131.245 49.728 129.809 52.3566V52.3926C128.911 54.013 128.049 55.3453 127.331 56.3175C127.116 56.6416 126.9 56.8937 126.685 57.1097C125.5 58.5501 124.53 59.1622 123.776 59.1622C123.309 59.1622 122.986 58.9462 122.663 58.5861C122.304 58.118 122.088 57.1818 122.088 56.0655C122.088 55.3813 122.124 54.6251 122.304 53.7969C122.986 50.088 125.32 45.3349 129.126 43.1384C129.593 42.8863 130.994 42.1301 131.855 42.1301L132.107 42.1661C132.358 42.2742 132.538 42.4182 132.645 42.6343V42.7783C132.645 42.9223 132.609 43.1024 132.538 43.2464V43.3544C132.322 43.6785 131.855 44.1466 131.101 44.5787C130.994 44.6147 130.958 44.6147 130.85 44.6147C130.635 44.6147 130.491 44.5067 130.383 44.3627C130.383 44.3267 130.347 44.3267 130.347 44.3267C126.756 46.2711 124.566 50.7362 123.848 54.049C123.632 54.9132 123.597 55.5974 123.597 56.2455C123.597 56.6776 123.597 57.0017 123.704 57.3258C123.74 57.5778 123.92 57.7939 124.171 57.7939L124.422 57.6859C124.746 57.5418 125.105 57.2538 125.5 56.8217L125.859 56.3536C126.505 55.6694 127.187 54.6251 127.941 53.3288L128.839 51.7805V51.7444C130.886 48.0356 133.399 42.4542 136.416 34.4243C137.852 28.3028 139.253 22.7935 140.33 19.3727C141.084 17.1041 141.622 15.7718 141.982 15.2317C142.233 14.9076 142.448 14.7635 142.736 14.7635C142.843 14.7635 142.987 14.7996 143.095 14.8716C143.31 15.0156 143.418 15.4117 143.418 15.8438C143.418 16.708 143.095 18.5445 142.305 20.777C140.868 25.2421 139.468 29.239 138.175 32.7319C136.2 41.0859 133.974 50.8082 132.753 57.7579C132.286 60.4585 131.963 62.6911 131.784 64.3115L131.64 65.9319C131.64 66.472 131.855 66.0399 131.963 66.724V66.8321C131.963 67.0841 131.748 67.3002 131.496 67.3722H131.281V67.4082Z" fill="white"/>
<path d="M138.893 55.0212C138.463 54.5891 138.211 53.7969 138.211 52.6447C138.211 52.2126 138.211 51.8525 138.319 51.3123L138.534 50.1961C138.858 48.6837 139.504 47.2794 140.186 46.2711C140.976 45.2629 141.91 44.6147 142.879 44.6147H143.095C143.131 44.6507 143.202 44.6507 143.238 44.6507C143.454 44.6867 143.562 44.7948 143.669 44.9028C143.813 44.9028 144.1 45.0108 144.352 45.2629C144.459 45.3709 144.675 45.695 144.782 46.1631C144.818 46.3792 144.89 46.5232 144.89 46.7032L145.142 46.9193C145.465 47.0633 145.896 47.2434 146.47 47.2434C147.547 47.2434 149.091 46.8113 151.246 45.587C151.282 45.551 151.39 45.551 151.497 45.551C151.641 45.551 151.856 45.659 151.964 45.803L152 46.0191C152 46.2351 151.892 46.4512 151.749 46.5592C149.451 47.8555 147.727 48.3236 146.434 48.3236C145.86 48.3236 145.357 48.2156 144.998 48.0716C144.962 50.3761 143.885 52.5726 142.592 53.977L142.341 54.3011C141.982 54.7332 141.335 55.1653 140.725 55.4173C140.473 55.4533 140.258 55.5254 139.971 55.5254C139.612 55.5614 139.217 55.4173 138.893 55.0212ZM141.91 53.2568C142.987 52.0325 143.957 50.016 143.957 48.0355L143.921 47.2794C143.669 46.9553 143.49 46.6312 143.454 46.3792C143.346 46.1271 143.31 45.911 143.31 45.731H142.987C142.628 45.731 142.197 46.0911 141.766 46.7392C141.228 47.4954 140.689 48.6117 140.438 49.908C140.402 50.2681 140.222 50.5922 140.222 51.0243L140.114 52.2486C140.114 52.7887 140.222 53.2208 140.33 53.5449C140.366 53.7609 140.473 53.869 140.581 53.905C140.617 53.941 140.725 53.941 140.904 53.941C141.156 53.905 141.479 53.6889 141.91 53.2568Z" fill="white"/>
<path d="M9.19254 52.6087C8.97709 52.5726 8.86936 52.3926 8.76163 52.1765C8.618 51.8525 8.54618 51.3844 8.54618 50.7362L8.58209 49.4039C8.72573 47.7835 9.0489 45.4789 9.55162 42.7783C10.3416 38.2052 11.4907 32.5158 12.7116 26.7544C10.8443 31.3635 9.15663 34.9284 7.72029 37.557V37.593C6.82258 39.2134 5.96078 40.5458 5.24262 41.518C5.02717 41.8421 4.81172 42.0941 4.59627 42.3102C3.41129 43.7505 2.44177 44.3627 1.68769 44.3627C1.22088 44.3627 0.897708 44.1466 0.574533 43.7865C0.21545 43.3184 0 42.3822 0 41.2659C0 40.5818 0.0359083 39.8256 0.21545 38.9974C0.933617 35.2885 3.26766 30.5353 7.07394 28.3388C7.54075 28.0868 8.94118 27.3306 9.80298 27.3306L10.0543 27.3666C10.3057 27.4746 10.4852 27.6186 10.593 27.8347V27.9787C10.593 28.1228 10.5571 28.3028 10.4852 28.4468V28.5549C10.2698 28.8789 9.80298 29.3471 9.0489 29.7792C8.94118 29.8872 8.86936 29.8872 8.76163 29.8872C8.54618 29.8872 8.40255 29.7792 8.29483 29.6351C8.29483 29.5991 8.25892 29.5991 8.25892 29.5991C4.66808 31.5436 2.47768 36.0087 1.75951 39.3215C1.54406 40.1857 1.50815 40.8698 1.50815 41.518C1.50815 41.9501 1.50815 42.2742 1.61588 42.5982C1.65178 42.8503 1.83133 43.0664 2.08268 43.0664L2.33404 42.9583C2.65722 42.8143 3.0163 42.5262 3.41129 42.0941L3.77038 41.626C4.41673 40.9418 5.09898 39.8976 5.85306 38.6013L6.75077 37.0529V37.0169C8.79754 33.308 11.3111 27.7267 14.3274 19.6967C15.7638 13.5753 17.1642 8.06594 18.2414 4.64512C18.9955 2.37657 19.5341 1.04425 19.8932 0.504121C20.2164 0.144035 20.4318 0 20.6832 0C20.7909 0 20.9346 0.0360087 21.0423 0.108026C21.2577 0.252061 21.3655 0.648156 21.3655 1.08026C21.3655 1.94447 21.0423 3.78091 20.2523 6.01345C18.816 10.4785 17.4155 14.4755 16.1228 17.9683C14.1479 26.3223 11.9216 36.0447 10.7007 42.9943C10.2339 45.695 9.9107 47.9275 9.73116 49.5479L9.58753 51.1683C9.58753 51.7084 9.80298 51.2763 9.9107 51.9605V52.0685C9.9107 52.3206 9.69525 52.5366 9.44389 52.6087H9.19254Z" fill="white"/>
<path d="M16.5178 41.8421C16.5537 39.8976 17.0565 37.1609 17.8105 34.1002C18.4928 31.2555 19.3187 27.6907 20.6114 27.6907C21.0423 27.6907 21.4014 28.0147 21.4732 28.4468C21.4732 28.5909 21.4373 28.7709 21.3296 28.915C19.7137 31.8317 18.2055 37.0529 17.6669 41.3019L17.631 41.8781C17.631 42.1301 17.4155 42.3102 17.1642 42.3102C16.7333 42.3462 16.5537 42.2382 16.5178 41.8421ZM21.0782 23.0816V22.7575C21.0782 22.1093 21.2218 21.9653 21.7605 21.4252C21.8682 21.3171 22.0118 21.2811 22.1195 21.2811C22.2632 21.2811 22.3709 21.3171 22.5504 21.4252C22.6582 21.5332 22.6941 21.6412 22.6941 21.7852C22.6941 21.9293 22.6582 22.0373 22.5863 22.2173C22.4786 22.2534 22.4786 22.2173 22.4786 22.3254C22.2273 22.5414 22.1554 22.5774 22.1554 22.8655V23.0816C22.1554 23.4056 21.9041 23.6217 21.6168 23.6217C21.3296 23.6217 21.0782 23.4056 21.0782 23.0816Z" fill="white"/>
<path d="M21.3296 41.2659C20.8987 40.8338 20.6832 40.1497 20.6832 39.2854V39.0334C20.8268 36.1167 22.9454 32.8039 24.8845 30.7514C25.459 30.1032 26.2131 29.5271 26.9313 29.3111C27.3622 29.167 27.7931 29.059 28.1521 29.059C28.4035 29.059 28.6908 29.095 28.9421 29.203C29.3012 29.4191 29.5167 29.6711 29.5885 30.1032C29.5885 30.4273 29.5526 30.7514 29.373 31.1835V31.2195C28.6908 32.6599 26.7517 33.9562 25.3513 34.3883C25.0281 34.4243 24.7049 34.4963 24.4536 34.4963H23.9868C23.0172 36.1167 22.4427 37.7371 22.2632 38.8894V39.2494C22.2632 39.6095 22.2991 39.9336 22.4068 40.1497C22.5145 40.3657 22.73 40.4737 23.0532 40.4737C23.8431 40.4737 25.2077 39.8256 27.1467 38.2052L27.1826 38.1692C29.1217 36.5488 31.4557 34.1722 34.3643 30.7514C34.472 30.6434 34.6156 30.5353 34.7952 30.5353C34.9029 30.5353 35.0465 30.5714 35.1543 30.6794C35.262 30.7874 35.2979 30.8954 35.2979 31.0395C35.2979 31.1835 35.262 31.2915 35.1902 31.3996C32.2457 34.8564 29.8398 37.305 27.829 38.9254C27.829 38.9614 27.829 38.9614 27.7931 38.9614C27.1467 39.5015 26.5722 39.9336 26.0335 40.2937C25.1358 40.8698 24.3818 41.2659 23.7354 41.482C23.3763 41.59 23.0532 41.626 22.73 41.626C22.1195 41.734 21.6886 41.59 21.3296 41.2659ZM28.3676 30.7154C28.4035 30.5714 28.4753 30.4633 28.4753 30.3553C28.3317 30.3553 28.0085 30.3913 27.6853 30.4993C26.5004 30.9314 25.6026 32.1557 24.669 33.416C25.5667 33.2 27.7212 32.2278 28.3676 30.7154Z" fill="white"/>
<path d="M24.5972 67.5162C23.9509 67.0481 23.4841 66.2199 23.1609 65.1397L23.125 64.9236C22.9813 64.2755 22.9095 63.5913 22.9095 62.8351C22.9095 60.0264 23.879 56.2815 26.1413 51.9245C28.224 47.9995 32.138 43.7505 36.3392 40.0776C38.2065 38.4212 40.1096 36.9449 41.905 35.6126C42.0487 34.4963 42.1205 33.6321 42.1205 32.8759C42.1205 32.1197 42.0846 31.5796 41.9768 31.1475C41.8691 30.8234 41.7255 30.6794 41.6178 30.6074L41.4023 30.5714C40.9355 30.5714 40.2173 31.3635 40.0019 31.6516C39.2478 32.6599 35.4415 37.7731 32.7125 39.7176C31.9584 40.2577 31.3839 40.5097 30.953 40.5097C30.3066 40.5097 29.9835 39.9696 29.9835 39.1054C29.9835 38.6733 30.0194 38.2052 30.1989 37.6651C30.4144 36.8008 30.7375 35.8286 31.2762 34.8564C32.3534 32.5878 34.077 30.2833 35.6211 29.5991H35.5852C35.9083 29.4551 36.2315 29.3831 36.5547 29.3831C37.4165 29.3831 38.2065 29.9232 38.8169 31.3275L39.2478 30.7874C39.7864 30.1392 40.5405 29.3471 41.51 29.275C41.7614 29.275 42.0487 29.3831 42.2641 29.5271C42.6232 29.7432 42.9105 30.1032 43.1259 30.7154C43.2695 31.1835 43.3773 31.9397 43.3773 32.8039C43.3773 33.344 43.3414 33.9202 43.2696 34.5683C46.0704 32.6959 48.584 31.2915 50.4153 30.6434L50.5589 30.6074C50.7744 30.6074 50.9898 30.7514 51.0976 30.9674L51.1335 31.1115C51.1335 31.3275 50.9898 31.5436 50.7744 31.6516C48.8353 32.3358 46.0704 33.9202 43.09 36.0447L42.9823 36.5848C42.3 40.5097 41.0073 45.1909 39.3914 49.6919C37.8474 53.905 36.0161 57.9739 34.077 61.1427C31.5634 65.2837 29.0858 67.3722 27.1467 67.8763C26.8235 67.9844 26.5722 67.9844 26.249 67.9844C25.6745 68.0564 25.1358 67.8763 24.5972 67.5162ZM28.4753 66.0039C29.8039 65.1037 31.3839 63.3752 33.0357 60.6746C34.9029 57.5418 36.6983 53.5809 38.2424 49.3679C39.7505 45.2269 40.9355 40.8698 41.6178 37.0889C40.1096 38.2772 38.5656 39.5015 37.0215 40.8698C32.9279 44.4707 29.1217 48.6117 27.1108 52.4286C24.9204 56.5696 23.9868 60.1345 23.9868 62.7631C23.9868 63.4473 24.0945 64.0954 24.2022 64.6355C24.3459 65.2837 24.669 65.8238 24.9922 66.1839C25.3513 66.544 25.854 66.76 26.3926 66.76C26.9672 66.7961 27.6494 66.544 28.4753 66.0039ZM37.7038 32.7679V32.6599C37.3447 31.6876 36.9138 31.3275 36.4829 31.3275L36.2315 31.3635C35.1184 31.7236 33.8257 33.452 32.892 35.2525C32.138 36.5848 31.5993 37.9531 31.5993 38.6013C31.5993 38.7453 31.6352 38.8533 31.7071 38.9254C31.7789 38.9974 31.8148 38.9614 31.8507 38.9614C32.8561 38.9254 37.4883 33.092 37.7038 32.7679Z" fill="white"/>
<path d="M48.1531 40.2217C47.7222 39.7896 47.4708 38.9974 47.4708 37.8451C47.4708 37.413 47.4708 37.0529 47.5786 36.5128L47.794 35.3965C48.1172 33.8842 48.7635 32.4798 49.4458 31.4716C50.2358 30.4633 51.1694 29.8152 52.1389 29.8152H52.3544C52.3903 29.8512 52.4621 29.8512 52.498 29.8512C52.7134 29.8872 52.8212 29.9952 52.9289 30.1032C53.0725 30.1032 53.3598 30.2113 53.6112 30.4633C53.7189 30.5714 53.9343 30.8954 54.042 31.3635C54.078 31.5796 54.1498 31.7236 54.1498 31.9037L54.4011 32.1197C54.7243 32.2638 55.1552 32.4438 55.7297 32.4438C56.807 32.4438 58.3511 32.0117 60.5056 30.7874C60.5415 30.7514 60.6492 30.7514 60.7569 30.7514C60.9005 30.7514 61.116 30.8594 61.2237 31.0035L61.2596 31.2195C61.2596 31.4356 61.1519 31.6516 61.0083 31.7596C58.7101 33.056 56.9865 33.5241 55.6938 33.5241C55.1193 33.5241 54.6166 33.416 54.2575 33.272C54.2216 35.5766 53.1443 37.7731 51.8516 39.1774L51.6003 39.5015C51.2412 39.9336 50.5949 40.3657 49.9844 40.6178C49.7331 40.6538 49.5176 40.7258 49.2303 40.7258C48.8353 40.7618 48.4763 40.6178 48.1531 40.2217ZM51.1335 38.4572C52.2107 37.233 53.1803 35.2165 53.1803 33.236L53.1443 32.4798C52.893 32.1557 52.7134 31.8317 52.6775 31.5796C52.5698 31.3275 52.5339 31.1115 52.5339 30.9314H52.2107C51.8516 30.9314 51.4207 31.2915 50.9898 31.9397C50.4512 32.6959 49.9126 33.8121 49.6612 35.1084C49.6253 35.4685 49.4458 35.7926 49.4458 36.2247L49.3381 37.449C49.3381 37.9891 49.4458 38.4212 49.5535 38.7453C49.5894 38.9614 49.6971 39.0694 49.8049 39.1054C49.8408 39.1414 49.9485 39.1414 50.128 39.1414C50.3794 39.1054 50.7026 38.8894 51.1335 38.4572Z" fill="white"/>
</svg>
