<svg width="86" height="28" viewBox="0 0 86 28" fill="none" xmlns="http://www.w3.org/2000/svg">
<path d="M13.4519 0.922119C6.1692 0.922119 0.265137 6.91398 0.265137 14.3052C0.265137 21.6971 6.1692 27.6887 13.4519 27.6887C20.7349 27.6887 26.6386 21.6971 26.6386 14.3052C26.6386 6.91445 20.7352 0.922758 13.4517 0.922758L13.4519 0.922119ZM19.4992 20.2243C19.2624 20.6186 18.7563 20.7421 18.3691 20.5019C15.2725 18.5811 11.3749 18.1472 6.78472 19.2114C6.3424 19.3143 5.90149 19.0329 5.80072 18.5841C5.69947 18.1352 5.9755 17.6878 6.41893 17.5855C11.4421 16.42 15.7509 16.9216 19.2267 19.0772C19.614 19.3185 19.7368 19.8315 19.4991 20.2246L19.4992 20.2243ZM21.1133 16.5807C20.815 17.0718 20.1823 17.2259 19.6991 16.9243C16.1553 14.7135 10.7515 14.0731 6.55892 15.3647C6.01518 15.5314 5.44091 15.2204 5.27588 14.6695C5.11212 14.1177 5.41871 13.536 5.96149 13.3682C10.7505 11.8934 16.704 12.6078 20.7745 15.1464C21.258 15.4485 21.4107 16.0909 21.1131 16.5809L21.1133 16.5807ZM21.2518 12.7861C17.0012 10.2242 9.9898 9.98862 5.93203 11.2385C5.28044 11.4391 4.59137 11.0658 4.3939 10.4044C4.19644 9.74283 4.56397 9.04396 5.21604 8.84292C9.87406 7.4078 17.6175 7.68507 22.5106 10.6331C23.0967 10.9862 23.289 11.7544 22.9416 12.3484C22.5952 12.9432 21.8362 13.1393 21.252 12.7861H21.2518ZM36.1419 13.2771C33.8651 12.7261 33.4598 12.3393 33.4598 11.5267C33.4598 10.7589 34.172 10.2422 35.2311 10.2422C36.2578 10.2422 37.2758 10.6346 38.3431 11.4423C38.3754 11.4667 38.4159 11.4765 38.4557 11.4701C38.4955 11.464 38.5308 11.4418 38.5541 11.4084L39.6658 9.81794C39.7115 9.75241 39.6991 9.66212 39.6375 9.6121C38.3672 8.57763 36.9368 8.0747 35.2648 8.0747C32.8064 8.0747 31.0893 9.57198 31.0893 11.7143C31.0893 14.0116 32.5706 14.825 35.1303 15.4529C37.3091 15.9623 37.6767 16.389 37.6767 17.1518C37.6767 17.997 36.9332 18.5225 35.7366 18.5225C34.4076 18.5225 33.3236 18.0681 32.1109 17.0023C32.0808 16.976 32.0396 16.964 32.0015 16.9662C31.9613 16.9696 31.9246 16.9884 31.8991 17.0196L30.6526 18.5252C30.6003 18.5877 30.6069 18.681 30.6674 18.735C32.0783 20.0134 33.8136 20.6886 35.6862 20.6886C38.3353 20.6886 40.0471 19.2196 40.0471 16.9459C40.0518 15.0266 38.9196 13.9638 36.1466 13.2792L36.1419 13.2771ZM46.0403 10.9982C44.892 10.9982 43.9502 11.4571 43.1736 12.3976V11.339C43.1736 11.2555 43.1068 11.1874 43.0246 11.1874H40.9859C40.9035 11.1874 40.8369 11.2555 40.8369 11.339V23.1016C40.8369 23.1852 40.9035 23.2532 40.9859 23.2532H43.0246C43.1068 23.2532 43.1736 23.1852 43.1736 23.1016V19.3886C43.9504 20.2734 44.8923 20.7057 46.0403 20.7057C48.1738 20.7057 50.3336 19.0388 50.3336 15.8525C50.3368 12.6653 48.1763 10.998 46.0426 10.998L46.0403 10.9982ZM47.9629 15.8525C47.9629 17.4751 46.9781 18.6073 45.568 18.6073C44.174 18.6073 43.1224 17.4236 43.1224 15.8525C43.1224 14.2815 44.174 13.0976 45.568 13.0976C46.9553 13.0975 47.9631 14.2558 47.9631 15.8523L47.9629 15.8525ZM55.8693 10.9982C53.1217 10.9982 50.9691 13.1454 50.9691 15.8871C50.9691 18.599 53.1069 20.7237 55.8356 20.7237C58.593 20.7237 60.7522 18.5837 60.7522 15.8525C60.7522 13.1307 58.6075 10.9985 55.8692 10.9985L55.8693 10.9982ZM55.8693 18.6235C54.4079 18.6235 53.3061 17.4317 53.3061 15.8517C53.3061 14.2649 54.3698 13.1134 55.8356 13.1134C57.3065 13.1134 58.4157 14.3052 58.4157 15.8863C58.4157 17.4728 57.345 18.6235 55.8695 18.6235H55.8693ZM66.6196 11.1874H64.3762V8.85954C64.3762 8.77612 64.3097 8.70804 64.2274 8.70804H62.1889C62.1064 8.70804 62.0395 8.77612 62.0395 8.85954V11.1874H61.0593C60.9772 11.1874 60.9108 11.2555 60.9108 11.339V13.1173C60.9108 13.2007 60.9772 13.2689 61.0593 13.2689H62.0395V17.8701C62.0395 19.7295 62.9514 20.6723 64.7498 20.6723C65.4811 20.6723 66.0878 20.519 66.6596 20.19C66.706 20.1636 66.7349 20.1128 66.7349 20.0588V18.3654C66.7349 18.3131 66.7081 18.2637 66.664 18.2364C66.6196 18.2081 66.5643 18.2067 66.5188 18.2295C66.1261 18.4301 65.7464 18.5226 65.3221 18.5226C64.6679 18.5226 64.3762 18.2212 64.3762 17.5457V13.2697H66.6196C66.7019 13.2697 66.7682 13.2017 66.7682 13.1181V11.34C66.7714 11.2564 66.7052 11.1883 66.6218 11.1883L66.6196 11.1874ZM74.4362 11.1965V10.9106C74.4362 10.0695 74.754 9.6944 75.4667 9.6944C75.8917 9.6944 76.2331 9.78006 76.6154 9.90951C76.6625 9.92454 76.7116 9.91702 76.7499 9.88841C76.7893 9.8598 76.8115 9.81394 76.8115 9.76535V8.0218C76.8115 7.95515 76.7693 7.89618 76.706 7.87652C76.3021 7.75458 75.7853 7.62945 75.0115 7.62945C73.1285 7.62945 72.1331 8.70563 72.1331 10.7405V11.1784H71.1537C71.0715 11.1784 71.0041 11.2465 71.0041 11.3299V13.1173C71.0041 13.2007 71.0715 13.2689 71.1537 13.2689H72.1331V20.3661C72.1331 20.4496 72.1996 20.5177 72.2818 20.5177H74.3205C74.4029 20.5177 74.47 20.4496 74.47 20.3661V13.2694H76.3734L79.2892 20.3648C78.9582 21.1103 78.6327 21.2586 78.1884 21.2586C77.8292 21.2586 77.451 21.1498 77.0642 20.935C77.0278 20.9147 76.9847 20.9113 76.9455 20.9237C76.9066 20.9376 76.8738 20.967 76.8573 21.0053L76.1663 22.5438C76.1334 22.6165 76.1616 22.7019 76.2306 22.7396C76.9519 23.1361 77.6031 23.3053 78.4079 23.3053C79.9133 23.3053 80.7453 22.5937 81.4788 20.6791L85.0157 11.4036C85.0335 11.3569 85.0281 11.3042 84.9999 11.2628C84.9719 11.2217 84.9267 11.197 84.8773 11.197H82.7549C82.6913 11.197 82.6344 11.238 82.6137 11.2986L80.4395 17.6013L78.0582 11.2944C78.0364 11.2358 77.9807 11.197 77.919 11.197H74.4358L74.4362 11.1965ZM69.9044 11.1874H67.8656C67.7833 11.1874 67.7162 11.2555 67.7162 11.339V20.3661C67.7162 20.4496 67.7833 20.5177 67.8656 20.5177H69.9044C69.9865 20.5177 70.0538 20.4496 70.0538 20.3661V11.3397C70.0538 11.3197 70.05 11.3 70.0425 11.2815C70.035 11.2631 70.024 11.2464 70.01 11.2323C69.9961 11.2182 69.9796 11.207 69.9615 11.1994C69.9433 11.1918 69.9238 11.1879 69.9042 11.188L69.9044 11.1874ZM68.8966 7.07715C68.0889 7.07715 67.4335 7.74069 67.4335 8.56037C67.4335 9.38053 68.0891 10.0449 68.8966 10.0449C69.7039 10.0449 70.3586 9.38053 70.3586 8.56037C70.3586 7.74085 69.7036 7.07715 68.8974 7.07715H68.8966Z" fill="white"/>
</svg>
