<svg width="99" height="24" viewBox="0 0 99 24" fill="none" xmlns="http://www.w3.org/2000/svg">
<path d="M13.0938 16.849V7.2895L21.2255 12.0692L13.0938 16.849ZM31.2198 4.39946C31.0415 3.72427 30.6919 3.10864 30.2063 2.61424C29.7207 2.11984 29.1159 1.76401 28.4527 1.58241C26.0116 0.916504 16.2238 0.916504 16.2238 0.916504C16.2238 0.916504 6.4359 0.916504 3.99496 1.58241C3.33174 1.76403 2.72703 2.11986 2.2414 2.61426C1.75576 3.10866 1.40624 3.72428 1.22783 4.39946C0.57373 6.88464 0.57373 12.0692 0.57373 12.0692C0.57373 12.0692 0.57373 17.254 1.22783 19.7388C1.40622 20.414 1.75574 21.0296 2.24138 21.524C2.72702 22.0184 3.33173 22.3743 3.99496 22.5559C6.4359 23.222 16.2238 23.222 16.2238 23.222C16.2238 23.222 26.0116 23.222 28.4527 22.5559C29.116 22.3743 29.7207 22.0185 30.2063 21.5241C30.692 21.0297 31.0415 20.414 31.2198 19.7388C31.8739 17.2538 31.8739 12.069 31.8739 12.069C31.8739 12.069 31.8739 6.88445 31.2198 4.39926V4.39946ZM49.4753 19.0208C49.6467 18.5656 49.7327 17.8212 49.7327 16.788V12.4357C49.7327 11.433 49.6467 10.7003 49.4753 10.2368C49.3037 9.7735 49.0015 9.54176 48.5691 9.54176C48.1511 9.54176 47.856 9.7735 47.6846 10.2368C47.513 10.7003 47.4272 11.433 47.4272 12.4357V16.788C47.4272 17.8208 47.5092 18.5654 47.6736 19.0208C47.8375 19.4768 48.1358 19.7044 48.5689 19.7044C49.0015 19.7044 49.3037 19.4768 49.4753 19.0208ZM46.0062 21.2087C45.3865 20.7838 44.9461 20.1228 44.6854 19.226C44.4242 18.3301 44.2937 17.1374 44.2937 15.6486V13.6204C44.2937 12.1167 44.4427 10.9088 44.7413 9.99737C45.0396 9.08596 45.5057 8.42143 46.1403 8.0036C46.7745 7.58596 47.6064 7.37684 48.6361 7.37684C49.6508 7.37684 50.4639 7.58969 51.0759 8.01481C51.6875 8.44012 52.1352 9.10504 52.4189 10.0088C52.7022 10.9127 52.844 12.1167 52.844 13.6206V15.6488C52.844 17.1374 52.706 18.334 52.4301 19.2376C52.1538 20.1415 51.706 20.8025 51.0869 21.2199C50.4676 21.6378 49.6284 21.8467 48.5691 21.8467C47.4792 21.8467 46.6251 21.6338 46.0062 21.2087ZM93.9387 9.80262C93.7822 10.0003 93.6775 10.3231 93.6255 10.7711C93.5729 11.2192 93.5474 11.8991 93.5474 12.8105V13.8132H95.8077V12.8103C95.8077 11.9142 95.7778 11.2344 95.7182 10.7709C95.6585 10.3076 95.5505 9.98124 95.394 9.79121C95.2371 9.60117 94.9946 9.50616 94.6663 9.50616C94.3378 9.50616 94.0954 9.60511 93.9387 9.80242V9.80262ZM93.5474 15.6818V16.3883C93.5474 17.2847 93.5729 17.9569 93.6255 18.4049C93.6775 18.8532 93.7855 19.1799 93.9501 19.3849C94.1142 19.5897 94.3675 19.6926 94.7111 19.6926C95.1733 19.6926 95.4908 19.5102 95.6624 19.1455C95.8338 18.781 95.9271 18.1733 95.942 17.3223L98.6057 17.482C98.6206 17.604 98.6282 17.771 98.6282 17.9833C98.6282 19.2748 98.2813 20.2397 97.5872 20.8775C96.8937 21.5152 95.912 21.8345 94.6438 21.8345C93.1219 21.8345 92.0549 21.3486 91.4431 20.376C90.8309 19.4042 90.5252 17.9001 90.5252 15.8642V13.4258C90.5252 11.3294 90.8423 9.79908 91.4767 8.83396C92.1107 7.86943 93.1965 7.38707 94.7335 7.38707C95.7928 7.38707 96.6062 7.58458 97.1733 7.9796C97.7401 8.37501 98.1395 8.99016 98.3708 9.82543C98.6021 10.6609 98.7178 11.8157 98.7178 13.2891V15.6818H93.5474ZM38.4845 15.4202L34.9702 2.49952H38.0366L39.2675 8.35593C39.5811 9.79967 39.8124 11.0302 39.9614 12.0476H40.0511C40.1554 11.3186 40.3869 10.0957 40.745 8.37874L42.0209 2.49952H45.0874L41.5285 15.4202V21.6189H38.4843V15.4202H38.4845ZM62.8176 21.6189H60.4001L60.1315 19.9098H60.0644C59.4076 21.2011 58.4227 21.8465 57.1097 21.8465C56.1995 21.8465 55.528 21.543 55.0952 20.9351C54.6624 20.3278 54.4461 19.378 54.4461 18.0866V7.65028H57.535V17.9046C57.535 18.5278 57.6022 18.972 57.7365 19.2376C57.8708 19.5037 58.0946 19.6363 58.408 19.6363C58.6766 19.6363 58.934 19.5531 59.1802 19.3855C59.4264 19.2185 59.6092 19.0062 59.7286 18.7479V7.65009H62.8176V21.6189ZM78.662 7.65028V21.6189H76.2444L75.9756 19.9098H75.9089C75.2516 21.2011 74.2668 21.8465 72.954 21.8465C72.0437 21.8465 71.3722 21.543 70.9393 20.9351C70.5065 20.3278 70.2904 19.378 70.2904 18.0866V7.65028H73.3793V17.9046C73.3793 18.5278 73.4463 18.972 73.5804 19.2376C73.7149 19.5037 73.9389 19.6363 74.2521 19.6363C74.5209 19.6363 74.7783 19.5531 75.0243 19.3855C75.2707 19.2185 75.4533 19.0062 75.5729 18.7479V7.65009H78.6618" fill="white"/>
<path d="M71.2112 5.02956H68.1446V21.6189H65.1229V5.02936H62.0565V2.50011H71.2112V5.02956ZM86.0538 15.5809C86.0538 16.5988 86.0122 17.3965 85.9303 17.9734C85.8484 18.5512 85.7102 18.9612 85.5162 19.2039C85.3222 19.4471 85.0607 19.5687 84.733 19.5687C84.4864 19.5708 84.2434 19.508 84.0277 19.3863C83.8113 19.2647 83.6362 19.0826 83.5017 18.8394V10.9092C83.6061 10.5295 83.7852 10.2181 84.0389 9.97495C84.2926 9.73219 84.5684 9.61042 84.8669 9.61042C85.1805 9.61042 85.4227 9.73573 85.5947 9.98616C85.7659 10.237 85.8855 10.6586 85.9527 11.2511C86.02 11.8434 86.0538 12.6866 86.0538 13.7803V15.5809ZM88.8851 9.88308C88.6982 9.00216 88.396 8.36419 87.9784 7.96897C87.5604 7.57415 86.9859 7.37665 86.2549 7.37665C85.6878 7.37665 85.1581 7.53992 84.6658 7.86648C84.1802 8.18545 83.7863 8.6297 83.5241 9.15403H83.5015L83.5017 1.79349H80.5249V21.6185H83.0764L83.3898 20.2971H83.4569C83.6955 20.7679 84.0536 21.1401 84.5313 21.4135C85.0086 21.687 85.5386 21.8237 86.1206 21.8237C87.1649 21.8237 87.9336 21.3337 88.4261 20.354C88.9185 19.3739 89.1649 17.8438 89.1649 15.7623V13.5519C89.1649 11.9874 89.0713 10.7644 88.8851 9.88308Z" fill="white"/>
</svg>
